<svg preserveAspectRatio="none" width="100%" height="100%" overflow="visible" style="display: block;" viewBox="0 0 36 36" fill="none" xmlns="http://www.w3.org/2000/svg">
<g id="Text" style="mix-blend-mode:plus-darker">
<g id="&#244;&#128;&#175;&#182;">
<path d="M12.6958 18C12.6958 17.834 12.7235 17.6846 12.7788 17.5518C12.8397 17.4189 12.9338 17.2917 13.061 17.1699L21.4697 9.04346C21.6745 8.8387 21.9263 8.73633 22.2251 8.73633C22.4243 8.73633 22.6042 8.78613 22.7646 8.88574C22.9307 8.97982 23.0607 9.1071 23.1548 9.26758C23.2544 9.42806 23.3042 9.60791 23.3042 9.80713C23.3042 10.1004 23.1963 10.3577 22.9805 10.5791L15.2773 18L22.9805 25.4126C23.1963 25.634 23.3042 25.8913 23.3042 26.1846C23.3042 26.3893 23.2544 26.5719 23.1548 26.7324C23.0607 26.8984 22.9307 27.0285 22.7646 27.1226C22.6042 27.2166 22.4243 27.2637 22.2251 27.2637C21.9263 27.2637 21.6745 27.1613 21.4697 26.9565L13.061 18.8301C12.9338 18.7083 12.8397 18.5811 12.7788 18.4482C12.7235 18.3099 12.6958 18.1605 12.6958 18Z" fill="#FFFFFF" style="mix-blend-mode:plus-darker"/>
</g>
</g>
</svg>
