<svg preserveAspectRatio="none" width="100%" height="100%" overflow="visible" style="display: block;" viewBox="0 0 36 36" fill="none" xmlns="http://www.w3.org/2000/svg">
<g id="Frame 19163">
<g id="Symbol">
<path d="M9.79883 26.001C9.66602 25.8682 9.57747 25.7104 9.5332 25.5278C9.48893 25.3507 9.48893 25.1709 9.5332 24.9883C9.57747 24.8112 9.66325 24.6618 9.79053 24.54L16.5557 17.7749L9.79053 11.0098C9.66325 10.888 9.57747 10.7386 9.5332 10.5615C9.48893 10.3844 9.48893 10.2046 9.5332 10.022C9.57747 9.83936 9.66602 9.68164 9.79883 9.54883C9.93164 9.41602 10.0866 9.32747 10.2637 9.2832C10.4463 9.23893 10.6261 9.23893 10.8032 9.2832C10.9803 9.32747 11.1353 9.41325 11.2681 9.54053L18.0249 16.3057L24.7817 9.54883C24.9146 9.41602 25.0695 9.32747 25.2466 9.2832C25.4237 9.23893 25.6007 9.23893 25.7778 9.2832C25.9549 9.32747 26.1099 9.41602 26.2427 9.54883C26.381 9.68164 26.4723 9.83936 26.5166 10.022C26.5609 10.1991 26.5609 10.3761 26.5166 10.5532C26.4723 10.7303 26.3838 10.8853 26.251 11.0181L19.4941 17.7749L26.251 24.5317C26.3838 24.6646 26.4696 24.8167 26.5083 24.9883C26.5526 25.1654 26.5526 25.3424 26.5083 25.5195C26.4696 25.7021 26.381 25.8626 26.2427 26.001C26.1099 26.1338 25.9549 26.2223 25.7778 26.2666C25.6007 26.3109 25.4237 26.3109 25.2466 26.2666C25.0695 26.2223 24.9146 26.1338 24.7817 26.001L18.0249 19.2441L11.2681 26.0093C11.1353 26.1366 10.9803 26.2223 10.8032 26.2666C10.6261 26.3109 10.4491 26.3109 10.272 26.2666C10.0949 26.2223 9.93717 26.1338 9.79883 26.001Z" fill="#FFFFFF" style="mix-blend-mode:plus-darker"/>
</g>
</g>
</svg>
