<svg width="20" height="20" viewBox="0 0 20 20" fill="none" xmlns="http://www.w3.org/2000/svg">
<path d="M10 8.33325V10.1666L11.3333 10.9999" stroke="#155DFC" stroke-width="1.66603" stroke-linecap="round" stroke-linejoin="round"/>
<path d="M13.4417 6.38323L12.7667 3.00823C12.6905 2.62457 12.4817 2.27993 12.177 2.03465C11.8723 1.78937 11.4911 1.65907 11.1 1.66657H8.86665C8.47557 1.65907 8.09431 1.78937 7.78961 2.03465C7.48491 2.27993 7.27619 2.62457 7.19999 3.00823L6.54999 6.38323" stroke="#155DFC" stroke-width="1.66603" stroke-linecap="round" stroke-linejoin="round"/>
<path d="M6.56668 13.6332L7.23335 16.9666C7.30955 17.3502 7.51827 17.6949 7.82297 17.9401C8.12767 18.1854 8.50893 18.3157 8.90001 18.3082H11.1667C11.5578 18.3157 11.939 18.1854 12.2437 17.9401C12.5484 17.6949 12.7571 17.3502 12.8333 16.9666L13.5083 13.5916" stroke="#155DFC" stroke-width="1.66603" stroke-linecap="round" stroke-linejoin="round"/>
<path d="M10 15C12.7614 15 15 12.7614 15 10C15 7.23858 12.7614 5 10 5C7.23858 5 5 7.23858 5 10C5 12.7614 7.23858 15 10 15Z" stroke="#155DFC" stroke-width="1.66603" stroke-linecap="round" stroke-linejoin="round"/>
</svg>
